<?xml version="1.0" encoding="UTF-8" standalone="no"?>
<!-- Created with Inkscape (http://www.inkscape.org/) -->

<svg
   xmlns:dc="http://purl.org/dc/elements/1.1/"
   xmlns:cc="http://creativecommons.org/ns#"
   xmlns:rdf="http://www.w3.org/1999/02/22-rdf-syntax-ns#"
   xmlns:svg="http://www.w3.org/2000/svg"
   xmlns="http://www.w3.org/2000/svg"
   xmlns:sodipodi="http://sodipodi.sourceforge.net/DTD/sodipodi-0.dtd"
   xmlns:inkscape="http://www.inkscape.org/namespaces/inkscape"
   width="210mm"
   height="297mm"
   viewBox="0 0 210 297"
   version="1.1"
   id="svg8"
   inkscape:version="0.92.3 (2405546, 2018-03-11)"
   sodipodi:docname="result.svg">
  <defs
     id="defs2" />
  <sodipodi:namedview
     id="base"
     pagecolor="#ffffff"
     bordercolor="#666666"
     borderopacity="1.0"
     inkscape:pageopacity="0.0"
     inkscape:pageshadow="2"
     inkscape:zoom="3.959798"
     inkscape:cx="71.959259"
     inkscape:cy="-10.138654"
     inkscape:document-units="mm"
     inkscape:current-layer="layer1"
     showgrid="false"
     inkscape:window-width="1920"
     inkscape:window-height="1017"
     inkscape:window-x="-8"
     inkscape:window-y="-8"
     inkscape:window-maximized="1" />
  <metadata
     id="metadata5">
    <rdf:RDF>
      <cc:Work
         rdf:about="">
        <dc:format>image/svg+xml</dc:format>
        <dc:type
           rdf:resource="http://purl.org/dc/dcmitype/StillImage" />
        <dc:title></dc:title>
      </cc:Work>
    </rdf:RDF>
  </metadata>
  <g
     inkscape:label="Layer 1"
     inkscape:groupmode="layer"
     id="layer1">
    <path
       style="fill:#008000;stroke-width:0.01007174"
       d="m 0.38117749,296.35302 c -0.24103266,-0.025 -0.46238646,-0.17129 -0.50092233,-0.33092 -0.0173043,-0.0717 -0.0173043,-1.89527 0,-1.96695 0.03957891,-0.16386 0.25767535,-0.30468 0.51345469,-0.33134 0.11349758,-0.0117 5.67630905,-0.0117 5.78980625,0 0.25578,0.0267 0.4738758,0.16741 0.5134548,0.33134 0.017302,0.0717 0.017302,1.89529 0,1.96695 -0.039579,0.16386 -0.2576757,0.30468 -0.5134548,0.33135 -0.1018321,0.01 -5.70008703,0.01 -5.80233861,-5e-4 z"
       id="path873"
       inkscape:connector-curvature="0"
       inkscape:export-xdpi="96"
       inkscape:export-ydpi="96" />
    <path
       inkscape:connector-curvature="0"
       id="path875"
       d="m 8.5923789,296.35302 c -0.2410335,-0.025 -0.4623867,-0.17129 -0.5009222,-0.33092 -0.017302,-0.0717 -0.017302,-1.89527 0,-1.96695 0.039579,-0.16386 0.2576757,-0.30468 0.5134546,-0.33134 0.1134976,-0.0117 5.6763087,-0.0117 5.7898067,0 0.25578,0.0267 0.473876,0.16741 0.513454,0.33134 0.0173,0.0717 0.0173,1.89529 0,1.96695 -0.03958,0.16386 -0.257675,0.30468 -0.513454,0.33135 -0.101833,0.01 -5.7000875,0.01 -5.8023391,-5e-4 z"
       style="fill:#008000;stroke-width:0.01007174;fill-opacity:1"
       inkscape:export-xdpi="96"
       inkscape:export-ydpi="96" />
    <path
       style="fill:#008000;stroke-width:0.01007174;fill-opacity:1"
       d="m 16.80358,296.35302 c -0.241033,-0.025 -0.462387,-0.17129 -0.500922,-0.33092 -0.0173,-0.0717 -0.0173,-1.89527 0,-1.96695 0.03958,-0.16386 0.257675,-0.30468 0.513455,-0.33134 0.11349,-0.0117 5.676308,-0.0117 5.789806,0 0.255781,0.0267 0.473877,0.16741 0.513455,0.33134 0.0173,0.0717 0.0173,1.89529 0,1.96695 -0.03958,0.16386 -0.257676,0.30468 -0.513455,0.33135 -0.101839,0.01 -5.700088,0.01 -5.802339,-5e-4 z"
       id="path877"
       inkscape:connector-curvature="0"
       inkscape:export-xdpi="96"
       inkscape:export-ydpi="96" />
    <path
       inkscape:connector-curvature="0"
       id="path879"
       d="m 25.014782,296.35302 c -0.241034,-0.025 -0.462386,-0.17129 -0.500922,-0.33092 -0.0173,-0.0717 -0.0173,-1.89527 0,-1.96695 0.03958,-0.16386 0.257676,-0.30468 0.513454,-0.33134 0.113505,-0.0117 5.676312,-0.0117 5.789811,0 0.255775,0.0267 0.473874,0.16741 0.513452,0.33134 0.01733,0.0717 0.01733,1.89529 0,1.96695 -0.03956,0.16386 -0.257688,0.30468 -0.513452,0.33135 -0.101838,0.01 -5.700092,0.01 -5.802343,-5e-4 z"
       style="fill:#008000;stroke-width:0.01007174;fill-opacity:1"
       inkscape:export-xdpi="96"
       inkscape:export-ydpi="96" />
    <path
       style="fill:#008000;stroke-width:0.01007174;fill-opacity:1"
       d="m 33.225983,296.35302 c -0.241033,-0.025 -0.462384,-0.17129 -0.500922,-0.33092 -0.01733,-0.0717 -0.01733,-1.89527 0,-1.96695 0.03956,-0.16386 0.257688,-0.30468 0.513455,-0.33134 0.113505,-0.0117 5.676309,-0.0117 5.789807,0 0.255775,0.0267 0.473877,0.16741 0.513457,0.33134 0.01733,0.0717 0.01733,1.89529 0,1.96695 -0.03956,0.16386 -0.25769,0.30468 -0.513457,0.33135 -0.101823,0.01 -5.700089,0.01 -5.80234,-5e-4 z"
       id="path881"
       inkscape:connector-curvature="0"
       inkscape:export-xdpi="96"
       inkscape:export-ydpi="96" />
    <path
       inkscape:export-ydpi="96"
       inkscape:export-xdpi="96"
       inkscape:connector-curvature="0"
       id="path883"
       d="m 49.462607,275.70645 c -0.241033,-0.025 -0.462384,-0.17129 -0.500922,-0.33092 -0.01733,-0.0717 -0.01733,-1.89527 0,-1.96695 0.03956,-0.16386 0.257688,-0.30468 0.513455,-0.33134 0.113505,-0.0117 5.676309,-0.0117 5.789807,0 0.255775,0.0267 0.473877,0.16741 0.513457,0.33134 0.01733,0.0717 0.01733,1.89529 0,1.96695 -0.03956,0.16386 -0.25769,0.30468 -0.513457,0.33135 -0.101823,0.01 -5.700089,0.01 -5.80234,-5e-4 z"
       style="fill:#808080;fill-opacity:1;stroke-width:0.01007174" />
  </g>
</svg>
